<?xml version="1.0" encoding="UTF-8"?><svg id="Layer_2" xmlns="http://www.w3.org/2000/svg" viewBox="0 0 312.38 365.73"><defs><style>.cls-1{fill:#fff;}</style></defs><g id="Layer_2-2"><path class="cls-1" d="M193.75,365.73L105.7,120.73h33.61l71.92,207.36,67.89-207.36h33.27l-85.03,245h-33.61Z"/><path class="cls-1" d="M223.88,120.73H121.88v27h75v6.73c0,43.76-32.43,75.4-77.36,75.4-25,0-47.63-9.09-62.16-24.91-16.22-17.5-26.01-46.79-26.01-77.08,0-60.25,34.46-99.97,86.49-99.97,37.5,0,64.53,19.19,71.28,50.82h32.21C212.53,28.72,174.69,0,118.26,0c-30.07,0-54.4,7.77-73.66,23.65C16.22,47.3,0,85.49,0,129.75c0,67.51,36.83,116.73,92.02,126.59,2.77,.82,7.48,1.4,14.65,1.66,2.04,.1,4.1,.15,6.19,.15,.23,0,.46,0,.7-.01,.83,0,1.68,.01,2.57,.01,56.45,0,82.43-32.24,94.22-56.86,.1-.2,.19-.41,.29-.61,.34-.71,.66-1.42,.97-2.11,.09-.21,.19-.42,.28-.64,.34-.77,.67-1.54,.99-2.29v-.03c2.64-6.32,4.31-11.83,5.35-15.73h0c3.95-14.55,5.28-28.64,5.67-39.62v-19.53Z"/></g></svg>